<svg id="Capa_1" data-name="Capa 1" xmlns="http://www.w3.org/2000/svg" viewBox="0 0 595.28 595.28"><defs><style>.cls-1{fill:#e62e37;}.cls-2{fill:#909294;}.cls-3{fill:#6a6a69;}.cls-4{fill:#010101;}</style></defs><title>Logos completos</title><path class="cls-1" d="M344.59,392.38H595.28v-2.25H344.59Z"/><path class="cls-2" d="M285.48,384.28h309.8V382H285.48Z"/><path class="cls-1" d="M209.46,372.9,194.8,353.17h75.13L247,422.91l-13.28-17.44s-43.52,15.14-86.57,15.14c0,0-87.95,6-131-70.19,0,0-27-44-11.45-111.48,0,0,12.37-54.13,71.46-110.56,0,0,78.32-75.69,191-75.69,0,0,150.7-4.13,178.18,119.73H398.64S400,94.89,305.2,68.75c0,0-63.22-14.68-126,5,0,0-93.44,30.74-139.71,111.48,0,0-26.57,45-26.57,95.88,0,0-.91,109.64,125.05,109.64C138,390.79,179.23,390.79,209.46,372.9Z"/><path class="cls-3" d="M64.26,363.27S21.2,339,21.2,273.35c0,0,0-101.38,108.56-171.12,0,0-97.34,83-97.34,172.5C32.42,274.73,34.25,325.88,64.26,363.27Z"/><path class="cls-2" d="M374.82,68.29s82.45,37.16,89.78,123.4l52.51-.08S498.68,91.44,374.82,68.29Z"/><path class="cls-2" d="M94.49,416.94s84.28,55.51,184.6,12.85l-12.83-21.56h83.83l-34.82,72.94-13.74-20.65S178.31,511,94.49,416.94Z"/><path class="cls-1" d="M63.44,511.82v23.95H59.81V511.82Z"/><path class="cls-1" d="M73.6,518.68v1.86a5.64,5.64,0,0,1,4.53-2.08,5.43,5.43,0,0,1,4.05,1.69,5.64,5.64,0,0,1,1.66,4.13v11.49H80.42V525.21a3.42,3.42,0,0,0-3.37-3.37,3.36,3.36,0,0,0-2.41,1,3.22,3.22,0,0,0-1,2.35v10.56H70.15V518.68Z"/><path class="cls-1" d="M93.64,521.44v9.88a1.14,1.14,0,0,0,.4,1,2.31,2.31,0,0,0,1.11.18h1.08v3.23H94.68A4.42,4.42,0,0,1,91,534.3a4.65,4.65,0,0,1-.79-3v-9.88H88.54v-2.76h1.69v-5.14h3.41v5.14h2.59v2.76Z"/><path class="cls-1" d="M104.27,528.44v.47a3.37,3.37,0,0,0,1.15,2.62,4.15,4.15,0,0,0,2.91,1,4.69,4.69,0,0,0,3.59-1.65l2.62,2.23a7.75,7.75,0,0,1-6.25,2.84,7.08,7.08,0,0,1-6.28-3.24,7.53,7.53,0,0,1-1.19-4.31v-3a6.64,6.64,0,0,1,2.09-4.92,6.83,6.83,0,0,1,5-2,6.64,6.64,0,0,1,5,2.1,7.4,7.4,0,0,1,2,5.3v2.58Zm0-3h7.29a3.68,3.68,0,0,0-1.08-2.61,3.52,3.52,0,0,0-2.55-1,3.41,3.41,0,0,0-2.53,1A4.07,4.07,0,0,0,104.24,525.43Z"/><path class="cls-1" d="M123.63,511.82v18.85a2.54,2.54,0,0,0,.29,1.54c.19.22.67.33,1.43.33h.83v3.23h-2.05a3.76,3.76,0,0,1-3.09-1.44,3.57,3.57,0,0,1-.68-1.2,7.82,7.82,0,0,1-.14-1.85V511.82Z"/><path class="cls-1" d="M134.51,511.82v3.37H131.1v-3.37Zm0,6.86v17.09H131.1V518.68Z"/><path class="cls-1" d="M153.9,518.68v16.48a7.94,7.94,0,0,1-1,4.24,6.89,6.89,0,0,1-6.22,3.41,7.81,7.81,0,0,1-6.06-2.77l2.65-2.22a4.71,4.71,0,0,0,3.34,1.65,3.52,3.52,0,0,0,3.41-1.83,5.49,5.49,0,0,0,.44-2.52v-1.25A5.74,5.74,0,0,1,146,536a5.38,5.38,0,0,1-4.12-1.75,6.11,6.11,0,0,1-1.63-4.36v-5.24a6.29,6.29,0,0,1,1.08-3.77,5.46,5.46,0,0,1,4.7-2.41,5.84,5.84,0,0,1,4.46,2.12v-1.9Zm-3.44,10.16v-3.48a3.45,3.45,0,0,0-1-2.48,3.39,3.39,0,0,0-4.83,0,3.39,3.39,0,0,0-1,2.48v3.84a3.22,3.22,0,0,0,1,2.37,3.3,3.3,0,0,0,2.39,1,3.2,3.2,0,0,0,3-1.9A4.1,4.1,0,0,0,150.46,528.84Z"/><path class="cls-1" d="M162.92,528.44v.47a3.37,3.37,0,0,0,1.15,2.62,4.12,4.12,0,0,0,2.91,1,4.72,4.72,0,0,0,3.59-1.65l2.62,2.23a7.75,7.75,0,0,1-6.25,2.84,7.09,7.09,0,0,1-6.29-3.24,7.53,7.53,0,0,1-1.18-4.31v-3a6.63,6.63,0,0,1,2.08-4.92,6.86,6.86,0,0,1,5-2,6.66,6.66,0,0,1,5.05,2.1,7.39,7.39,0,0,1,2,5.3v2.58Zm0-3h7.29a3.6,3.6,0,0,0-1.08-2.61,3.49,3.49,0,0,0-2.55-1,3.42,3.42,0,0,0-2.53,1A4.12,4.12,0,0,0,162.88,525.43Z"/><path class="cls-1" d="M182.42,518.68v1.86a5.64,5.64,0,0,1,4.52-2.08,5.43,5.43,0,0,1,4.06,1.69,5.67,5.67,0,0,1,1.65,4.13v11.49h-3.41V525.21a3.42,3.42,0,0,0-3.37-3.37,3.34,3.34,0,0,0-2.41,1,3.22,3.22,0,0,0-1,2.35v10.56H179V518.68Z"/><path class="cls-1" d="M208.92,531l2.62,2.12a7.19,7.19,0,0,1-6,2.84,7.4,7.4,0,0,1-6.17-3.13,9,9,0,0,1-1.58-5.6A8.71,8.71,0,0,1,200,520.9a7.72,7.72,0,0,1,11.52.29l-2.62,2.23a4.19,4.19,0,0,0-3.3-1.51,4,4,0,0,0-3.22,1.45,6,6,0,0,0-1.2,3.93,5.84,5.84,0,0,0,1.22,3.87,4.06,4.06,0,0,0,3.27,1.45A4.28,4.28,0,0,0,208.92,531Z"/><path class="cls-1" d="M220.06,511.82v3.37h-3.42v-3.37Zm0,6.86v17.09h-3.42V518.68Z"/><path class="cls-1" d="M235.43,535.77v-1.69c-.77,1.27-2.13,1.91-4.1,1.91a6.62,6.62,0,0,1-4.45-1.48,4.76,4.76,0,0,1-1.72-3.8A5,5,0,0,1,226,528a5.26,5.26,0,0,1,2.16-1.92,6.69,6.69,0,0,1,2.76-.47h4.53v-1.29a2.28,2.28,0,0,0-.51-1.76,4.28,4.28,0,0,0-2.83-.68,7.51,7.51,0,0,0-1.83.14,2.09,2.09,0,0,0-1.41,1l-2.69-2.15q1.58-2.42,5.93-2.41a7.43,7.43,0,0,1,5,1.44,5,5,0,0,1,1.79,4v11.89Zm0-7.4H231a3.58,3.58,0,0,0-1.54.25,2,2,0,0,0-1,1.87c0,1.51,1.16,2.26,3.48,2.26,1.73,0,2.8-.34,3.23-1a3.3,3.3,0,0,0,.33-1.86Z"/><path class="cls-4" d="M299.7,361.21l-2.27,6.61h-4.79l10.92-29.59h3.68L318,367.82h-4.7L311,361.21Zm10-4-4.31-12.91L301,357.22Z"/><path class="cls-4" d="M333.14,338.23v23.29a3.22,3.22,0,0,0,.36,1.91c.24.27.83.4,1.77.4h1v4h-2.52a4.65,4.65,0,0,1-3.82-1.77,4.52,4.52,0,0,1-.84-1.49,9.74,9.74,0,0,1-.18-2.28v-24Z"/><path class="cls-4" d="M352.62,338.23v23.29a3.22,3.22,0,0,0,.36,1.91c.23.27.82.4,1.77.4h1v4h-2.53a4.62,4.62,0,0,1-3.81-1.77,4.39,4.39,0,0,1-.85-1.49,9.89,9.89,0,0,1-.17-2.28v-24Z"/><path class="cls-4" d="M389.18,364.32l2.83-3.51a13.31,13.31,0,0,0,8.08,2.75,7.79,7.79,0,0,0,4.48-1.11,3.57,3.57,0,0,0,1.6-3.1,3.68,3.68,0,0,0-1.65-3.28,9.63,9.63,0,0,0-4.56-1,12,12,0,0,1-5.82-1.51,8,8,0,0,1-3.86-7.1,7.75,7.75,0,0,1,2.67-6.12,10,10,0,0,1,6.92-2.36,17.5,17.5,0,0,1,9.53,2.84L407,344.53a13.47,13.47,0,0,0-7.32-2.08,5.52,5.52,0,0,0-3.57,1.06,3.53,3.53,0,0,0-1.31,2.88,3.71,3.71,0,0,0,1.78,3.29,8.49,8.49,0,0,0,3.9.88,14.79,14.79,0,0,1,6.21,1.51,7.54,7.54,0,0,1,2.93,3,8.62,8.62,0,0,1,1.11,4.19,8.37,8.37,0,0,1-2,5.51c-1.81,2.18-4.66,3.28-8.57,3.28A16.32,16.32,0,0,1,389.18,364.32Z"/><path class="cls-4" d="M427.28,358.77v.58a4.18,4.18,0,0,0,1.42,3.24,5.15,5.15,0,0,0,3.59,1.28,5.81,5.81,0,0,0,4.44-2l3.24,2.75a9.55,9.55,0,0,1-7.72,3.51,8.74,8.74,0,0,1-7.76-4,9.31,9.31,0,0,1-1.47-5.33v-3.72A8.2,8.2,0,0,1,425.6,349a8.46,8.46,0,0,1,6.16-2.53A8.24,8.24,0,0,1,438,349a9.15,9.15,0,0,1,2.46,6.55v3.19Zm0-3.72h9a4.45,4.45,0,0,0-1.33-3.22,4.33,4.33,0,0,0-3.15-1.27,4.2,4.2,0,0,0-3.12,1.23A5,5,0,0,0,427.24,355.05Z"/><path class="cls-4" d="M466.06,362l3.23,2.61a8.86,8.86,0,0,1-7.36,3.51,9.15,9.15,0,0,1-7.63-3.86,11.19,11.19,0,0,1-1.95-6.92q0-5.1,2.7-7.85a9.54,9.54,0,0,1,14.24.35l-3.23,2.75A5.24,5.24,0,0,0,462,350.7a4.91,4.91,0,0,0-4,1.79,7.4,7.4,0,0,0-1.48,4.86,7.16,7.16,0,0,0,1.51,4.77,5,5,0,0,0,4,1.8A5.33,5.33,0,0,0,466.06,362Z"/><path class="cls-4" d="M498.49,346.7v21.12h-4.22v-2.39a6.86,6.86,0,0,1-5.54,2.66,7,7,0,0,1-3.91-1.2,7.4,7.4,0,0,1-2.7-3.1,8.76,8.76,0,0,1-.54-3.47V346.7h4.22v12.21a5.66,5.66,0,0,0,.57,2.88,4.12,4.12,0,0,0,3.69,2,3.94,3.94,0,0,0,3.77-2.26,7.13,7.13,0,0,0,.44-2.93V346.7Z"/><path class="cls-4" d="M516.5,346.7V349a7.18,7.18,0,0,1,5.54-2.57,6.8,6.8,0,0,1,4.53,1.6l-3,3.68a4.51,4.51,0,0,0-2.79-1.07,4.13,4.13,0,0,0-3.08,1.25,4.26,4.26,0,0,0-1.22,3.15v12.77h-4.22V346.7Z"/><path class="cls-4" d="M542.45,338.23v4.17h-4.22v-4.17Zm0,8.47v21.12h-4.22V346.7Z"/><path class="cls-4" d="M561.17,350.12v12.2a1.42,1.42,0,0,0,.49,1.29,2.82,2.82,0,0,0,1.37.22h1.33v4h-1.9a5.46,5.46,0,0,1-4.53-1.82,5.76,5.76,0,0,1-1-3.68v-12.2h-2.09V346.7H557v-6.34h4.21v6.34h3.19v3.42Z"/><path class="cls-4" d="M594.89,346.7l-9,25.25a6.37,6.37,0,0,1-2.28,3.28,6.77,6.77,0,0,1-3.89,1h-1.28v-4h.66a4.13,4.13,0,0,0,2.11-.4,3.29,3.29,0,0,0,1.13-1.73l1.11-3.15-7.59-20.28h4.48l5,14.69,5.06-14.69Z"/><path class="cls-2" d="M259.19,518.68v1.9a6.07,6.07,0,0,1,4.56-2.12,5.48,5.48,0,0,1,4.6,2.37,5.74,5.74,0,0,1,.93,1.8,8.14,8.14,0,0,1,.18,2v5.28a6.05,6.05,0,0,1-.93,3.48,5.55,5.55,0,0,1-4.82,2.59,5.91,5.91,0,0,1-4.52-2.16v8.76h-3.41V518.68Zm6.86,10.3v-3.73a3.24,3.24,0,0,0-1-2.41,3.36,3.36,0,0,0-2.46-1,3.29,3.29,0,0,0-2.42,1,3.24,3.24,0,0,0-1,2.41V529a3.56,3.56,0,0,0,1,2.59,3.31,3.31,0,0,0,2.51,1,3.19,3.19,0,0,0,2.43-1A3.64,3.64,0,0,0,266.05,529Z"/><path class="cls-2" d="M284.54,535.77v-1.69c-.76,1.27-2.13,1.91-4.09,1.91a6.6,6.6,0,0,1-4.45-1.48,4.77,4.77,0,0,1-1.73-3.8,5,5,0,0,1,.83-2.75,5.3,5.3,0,0,1,2.15-1.92,6.71,6.71,0,0,1,2.77-.47h4.52v-1.29a2.32,2.32,0,0,0-.5-1.76,4.31,4.31,0,0,0-2.84-.68,7.62,7.62,0,0,0-1.83.14,2.07,2.07,0,0,0-1.4,1l-2.69-2.15c1.05-1.61,3-2.41,5.92-2.41a7.41,7.41,0,0,1,5,1.44,5,5,0,0,1,1.8,4v11.89Zm0-7.4h-4.45a3.55,3.55,0,0,0-1.54.25,2,2,0,0,0-1.05,1.87c0,1.51,1.17,2.26,3.49,2.26,1.72,0,2.8-.34,3.23-1a3.33,3.33,0,0,0,.32-1.86Z"/><path class="cls-2" d="M297.61,518.68v1.86a5.84,5.84,0,0,1,4.49-2.08,5.54,5.54,0,0,1,3.67,1.29l-2.41,3a3.7,3.7,0,0,0-2.26-.86,3.36,3.36,0,0,0-2.5,1,3.48,3.48,0,0,0-1,2.55v10.34H294.2V518.68Z"/><path class="cls-2" d="M319.34,535.77v-1.69q-1.15,1.9-4.09,1.91a6.65,6.65,0,0,1-4.46-1.48,4.76,4.76,0,0,1-1.72-3.8,5,5,0,0,1,.83-2.75,5.3,5.3,0,0,1,2.15-1.92,6.71,6.71,0,0,1,2.77-.47h4.52v-1.29a2.32,2.32,0,0,0-.5-1.76,4.31,4.31,0,0,0-2.84-.68,7.62,7.62,0,0,0-1.83.14,2.07,2.07,0,0,0-1.4,1l-2.69-2.15q1.57-2.42,5.92-2.41a7.41,7.41,0,0,1,5,1.44,5,5,0,0,1,1.8,4v11.89Zm0-7.4h-4.45a3.64,3.64,0,0,0-1.55.25,2,2,0,0,0-1,1.87c0,1.51,1.16,2.26,3.49,2.26,1.72,0,2.8-.34,3.23-1a3.42,3.42,0,0,0,.32-1.86Z"/><path class="cls-2" d="M355.07,520.65l-2.11,2.8a7.36,7.36,0,0,0-4.78-1.58c-1.8,0-2.69.6-2.69,1.8s.82,1.64,2.47,1.69a12.7,12.7,0,0,1,4.89.75,5,5,0,0,1,.73,8.39A8.07,8.07,0,0,1,348.5,536a10,10,0,0,1-7.54-3l2.44-2.45a7,7,0,0,0,5.07,2c2.39,0,3.59-.67,3.59-2a1.42,1.42,0,0,0-.67-1.33,5,5,0,0,0-2.26-.43,24.09,24.09,0,0,1-2.42-.14,5.89,5.89,0,0,1-2.27-.72,4.64,4.64,0,0,1-2.4-4.24,4.88,4.88,0,0,1,2-4,6.82,6.82,0,0,1,4.31-1.22A11,11,0,0,1,355.07,520.65Z"/><path class="cls-2" d="M374.5,518.68v17.09h-3.41v-1.94A5.54,5.54,0,0,1,366.6,536a5.7,5.7,0,0,1-3.16-1,6,6,0,0,1-2.19-2.52,7.26,7.26,0,0,1-.43-2.8v-11h3.41v9.87a4.58,4.58,0,0,0,.47,2.34,3.32,3.32,0,0,0,3,1.65,3.18,3.18,0,0,0,3.05-1.83,5.67,5.67,0,0,0,.36-2.37v-9.66Z"/><path class="cls-2" d="M406.83,520.65l-2.12,2.8a7.36,7.36,0,0,0-4.78-1.58c-1.8,0-2.69.6-2.69,1.8s.82,1.64,2.47,1.69a12.7,12.7,0,0,1,4.89.75,5,5,0,0,1,.74,8.39,8.12,8.12,0,0,1-5.09,1.49,10,10,0,0,1-7.54-3l2.44-2.45a7,7,0,0,0,5.07,2c2.39,0,3.59-.67,3.59-2a1.42,1.42,0,0,0-.67-1.33,5,5,0,0,0-2.26-.43,24.09,24.09,0,0,1-2.42-.14,5.79,5.79,0,0,1-2.26-.72,4.63,4.63,0,0,1-2.41-4.24,4.88,4.88,0,0,1,2-4,6.82,6.82,0,0,1,4.31-1.22A11,11,0,0,1,406.83,520.65Z"/><path class="cls-2" d="M415.55,528.44v.47a3.37,3.37,0,0,0,1.15,2.62,4.15,4.15,0,0,0,2.91,1,4.69,4.69,0,0,0,3.59-1.65l2.62,2.23a7.75,7.75,0,0,1-6.25,2.84,7.08,7.08,0,0,1-6.28-3.24,7.53,7.53,0,0,1-1.19-4.31v-3a6.64,6.64,0,0,1,2.09-4.92,6.85,6.85,0,0,1,5-2,6.68,6.68,0,0,1,5.05,2.1,7.43,7.43,0,0,1,2,5.3v2.58Zm0-3h7.29a3.68,3.68,0,0,0-1.08-2.61,3.51,3.51,0,0,0-2.55-1,3.42,3.42,0,0,0-2.53,1A4.07,4.07,0,0,0,415.52,525.43Z"/><path class="cls-2" d="M445,518.68v16.48a7.94,7.94,0,0,1-1,4.24,6.87,6.87,0,0,1-6.21,3.41,7.81,7.81,0,0,1-6.07-2.77l2.65-2.22a4.71,4.71,0,0,0,3.34,1.65,3.54,3.54,0,0,0,3.42-1.83,5.65,5.65,0,0,0,.43-2.52v-1.25A5.72,5.72,0,0,1,437,536a5.38,5.38,0,0,1-4.11-1.75,6.12,6.12,0,0,1-1.64-4.36v-5.24a6.29,6.29,0,0,1,1.08-3.77,5.47,5.47,0,0,1,4.7-2.41,5.84,5.84,0,0,1,4.46,2.12v-1.9Zm-3.44,10.16v-3.48a3.45,3.45,0,0,0-1-2.48,3.22,3.22,0,0,0-2.41-1,3.26,3.26,0,0,0-2.42,1,3.39,3.39,0,0,0-1,2.48v3.84a3.22,3.22,0,0,0,1,2.37,3.31,3.31,0,0,0,2.39,1,3.2,3.2,0,0,0,3.05-1.9A4.1,4.1,0,0,0,441.52,528.84Z"/><path class="cls-2" d="M464.82,518.68v17.09h-3.41v-1.94a5.54,5.54,0,0,1-4.49,2.16,5.7,5.7,0,0,1-3.16-1,6,6,0,0,1-2.19-2.52,7.26,7.26,0,0,1-.43-2.8v-11h3.41v9.87a4.58,4.58,0,0,0,.47,2.34,3.32,3.32,0,0,0,3,1.65,3.18,3.18,0,0,0,3.05-1.83,5.67,5.67,0,0,0,.36-2.37v-9.66Z"/><path class="cls-2" d="M474.49,518.68v1.86a5.8,5.8,0,0,1,4.48-2.08,5.54,5.54,0,0,1,3.67,1.29l-2.41,3a3.68,3.68,0,0,0-2.26-.86,3.36,3.36,0,0,0-2.5,1,3.48,3.48,0,0,0-1,2.55v10.34h-3.42V518.68Z"/><path class="cls-2" d="M490.57,511.82v3.37h-3.41v-3.37Zm0,6.86v17.09h-3.41V518.68Z"/><path class="cls-2" d="M510.07,511.82v23.95h-3.41V533.9a5.92,5.92,0,0,1-4.45,2.09,5.49,5.49,0,0,1-5.06-2.88,6.65,6.65,0,0,1-.76-3.41v-4.88a7.69,7.69,0,0,1,.33-2.63,5.65,5.65,0,0,1,2.17-2.71,5.85,5.85,0,0,1,3.32-1,5.72,5.72,0,0,1,4.45,2.15v-8.79Zm-3.41,17.09v-3.45a3.51,3.51,0,0,0-1-2.55,3.23,3.23,0,0,0-2.44-1,3.31,3.31,0,0,0-2.48,1,3.55,3.55,0,0,0-1,2.55v3.45a3.7,3.7,0,0,0,1,2.64,3.49,3.49,0,0,0,5.54-.81A3.91,3.91,0,0,0,506.66,528.91Z"/><path class="cls-2" d="M525.44,535.77v-1.69c-.76,1.27-2.13,1.91-4.09,1.91a6.62,6.62,0,0,1-4.45-1.48,4.77,4.77,0,0,1-1.73-3.8A5,5,0,0,1,516,528a5.3,5.3,0,0,1,2.15-1.92,6.74,6.74,0,0,1,2.77-.47h4.52v-1.29a2.28,2.28,0,0,0-.5-1.76,4.3,4.3,0,0,0-2.83-.68,7.67,7.67,0,0,0-1.84.14,2.07,2.07,0,0,0-1.4,1l-2.69-2.15q1.58-2.42,5.93-2.41a7.43,7.43,0,0,1,5,1.44,5,5,0,0,1,1.79,4v11.89Zm0-7.4H521a3.55,3.55,0,0,0-1.54.25,2,2,0,0,0-1,1.87c0,1.51,1.16,2.26,3.48,2.26,1.72,0,2.8-.34,3.23-1a3.33,3.33,0,0,0,.32-1.86Z"/><path class="cls-2" d="M548.32,511.82v23.95h-3.41V533.9a5.93,5.93,0,0,1-4.45,2.09,5.52,5.52,0,0,1-5.07-2.88,6.76,6.76,0,0,1-.75-3.41v-4.88a8,8,0,0,1,.32-2.63,5.67,5.67,0,0,1,2.18-2.71,5.83,5.83,0,0,1,3.32-1,5.73,5.73,0,0,1,4.45,2.15v-8.79Zm-3.41,17.09v-3.45a3.51,3.51,0,0,0-1-2.55,3.25,3.25,0,0,0-2.44-1,3.29,3.29,0,0,0-2.48,1,3.51,3.51,0,0,0-1,2.55v3.45a3.73,3.73,0,0,0,1,2.64,3.27,3.27,0,0,0,2.5,1,3.22,3.22,0,0,0,3-1.83A3.91,3.91,0,0,0,544.91,528.91Z"/><path class="cls-4" d="M196,226.38c-1.89-8.84-10.57-8.49-10.57-8.49-10.57,0-14.64,7.86-14.64,7.86l-53.4,87h14.52l15.79-25.26H190l4.42,24.62h14.52ZM153.52,276.8l29.23-47.89,6.34,47.89Z"/><path class="cls-4" d="M578.35,226.38c-1.89-8.84-10.57-8.49-10.57-8.49-10.57,0-14.64,7.86-14.64,7.86l-53.4,87h14.52l15.79-25.26h42.31l4.42,24.62h14.53ZM535.9,276.8l29.22-47.89,6.34,47.89Z"/><path class="cls-4" d="M251.41,219.06H238l-12.68,58.79s-5.81,20.6,3.52,28.52c0,0,5.46,5.64,15.85,5.64h29.57l2.47-10.65H248.59s-14.26.26-11.62-15.85Z"/><path class="cls-4" d="M312.32,219.06H298.94l-12.68,58.79s-5.81,20.6,3.52,28.52c0,0,5.46,5.64,15.85,5.64H335.2l2.47-10.65H309.5s-14.26.26-11.62-15.85Z"/><path class="cls-4" d="M389.11,229.36h42.45l2.07-9.6H384.28s-27.87-.63-29,30.46c0,0-1,19.54,18.12,19.54h22.9c3.4.08,15.47,1.36,13.19,15.49,0,0-2.38,16.55-19.71,16.55H346.47L344.36,312h50.35s28.42.67,29.57-32.39c0,0,1.06-20.78-18.48-20.78H381.22c-4.44-.26-13.41-2.21-11.44-13.92C369.78,244.92,372.12,229.36,389.11,229.36Z"/><path class="cls-4" d="M469.3,229.36h42.45l2.07-9.6H464.46s-27.86-.63-29,30.46c0,0-1,19.54,18.12,19.54h22.9c3.4.08,15.47,1.36,13.19,15.49,0,0-2.38,16.55-19.71,16.55H426.66L424.55,312H474.9s28.42.67,29.57-32.39c0,0,1.06-20.78-18.48-20.78H461.4c-4.43-.26-13.4-2.21-11.43-13.92C450,244.92,452.31,229.36,469.3,229.36Z"/></svg>