<svg width="442" height="442" viewBox="0 0 442 442" fill="none" xmlns="http://www.w3.org/2000/svg">
<path fill-rule="evenodd" clip-rule="evenodd" d="M55.25 0H386.75C417.22 0 442 24.7796 442 55.25V386.75C442 417.22 417.22 442 386.75 442H303.875V290.062H345.312L372.938 221H303.875V165.75C303.875 151.733 314.331 151.814 327.864 151.919C329.054 151.928 330.268 151.938 331.5 151.938H359.125V82.875H303.875C281.895 82.875 260.816 91.6065 245.274 107.149C229.731 122.691 221 143.77 221 165.75V221H165.75V290.062H221V442H55.25C24.7796 442 0 417.22 0 386.75V55.25C0 24.7796 24.7796 0 55.25 0Z" fill="white"/>
</svg>
