<svg width="449" height="449" viewBox="0 0 449 449" fill="none" xmlns="http://www.w3.org/2000/svg">
<path d="M412.469 0.0843506H38.5788C18.1488 0.0843506 0.298828 14.7843 0.298828 34.9743V409.694C0.298828 429.994 18.1488 448.084 38.5788 448.084H412.359C432.899 448.084 448.299 429.874 448.299 409.694V34.9743C448.419 14.7843 432.899 0.0843506 412.469 0.0843506ZM139.169 373.514H74.9888V173.964H139.169V373.514ZM109.299 143.624H108.839C88.2988 143.624 74.9988 128.334 74.9988 109.194C74.9988 89.7044 88.6488 74.7744 109.649 74.7744C130.649 74.7744 143.499 89.5944 143.959 109.194C143.949 128.334 130.649 143.624 109.299 143.624ZM373.729 373.514H309.549V264.404C309.549 238.264 300.209 220.404 276.989 220.404C259.249 220.404 248.749 232.404 244.079 244.094C242.329 248.294 241.859 254.014 241.859 259.854V373.514H177.679V173.964H241.859V201.734C251.199 188.434 265.789 169.294 299.739 169.294C341.869 169.294 373.739 197.064 373.739 256.934L373.729 373.514Z" fill="white"/>
</svg>
