<svg width="29" height="38" viewBox="0 0 29 38" fill="none" xmlns="http://www.w3.org/2000/svg">
<path d="M14.334 0C6.43 0 0 6.43 0 14.333C0 25.712 12.796 37.143 13.341 37.625C13.626 37.875 13.98 38 14.334 38C14.702 38 15.07 37.865 15.357 37.596C15.9 37.088 28.668 25.028 28.668 14.334C28.668 6.431 22.236 0 14.334 0ZM14.334 21.168C10.559 21.168 7.5 18.107 7.5 14.335C7.5 10.563 10.559 7.502 14.334 7.502C18.107 7.502 21.166 10.562 21.166 14.335C21.166 18.108 18.107 21.168 14.334 21.168Z" fill="white"/>
</svg>
