<svg id="Capa_1" data-name="Capa 1" xmlns="http://www.w3.org/2000/svg" xmlns:xlink="http://www.w3.org/1999/xlink" viewBox="0 0 595.28 595.28"><defs><style>.cls-1{fill:#67bd9b;}.cls-2{fill:#3ab0b4;}.cls-3{fill:url(#linear-gradient);}.cls-4{fill:#7a7b7b;}</style><linearGradient id="linear-gradient" x1="0.94" y1="228.87" x2="594.2" y2="228.87" gradientUnits="userSpaceOnUse"><stop offset="0" stop-color="#6bc0ae"/><stop offset="1" stop-color="#50bece"/></linearGradient></defs><title>Multishop variante</title><path class="cls-1" d="M60.2,427.78h5.15v65.64H59.63V438.28L33.76,480.57H31.6L5.72,438.19v55.23H0V427.78H5.25l27.47,45.67Z"/><path class="cls-1" d="M131.09,443h5.53v50.45h-5.53v-10a22.77,22.77,0,0,1-19.88,11c-12.09,0-20.06-8.44-20.06-21.85V443h5.43v28.88c0,10.78,5.91,17.35,15.85,17.35,10.13,0,18.66-8.25,18.66-19.69Z"/><path class="cls-1" d="M162.69,493.42v-69.2h5.54v69.2Z"/><path class="cls-1" d="M226.46,491.36c-3,1.87-8.07,2.9-11.73,2.9-8.62,0-14.44-5.25-14.44-14.44V447.94H190v-5h10.41l.37-13.87h5V443H224.3v5H205.73v30.94c0,6.47,4,10.41,9.75,10.41a21.7,21.7,0,0,0,9.76-2.34Z"/><path class="cls-1" d="M247.56,435.38v-9.94h5.81v9.94Zm.18,58V443h5.54v50.45Z"/><path class="cls-2" d="M271.37,485.17l5.72-9.38a39.33,39.33,0,0,0,23.44,7.78c9.94,0,13-4.59,13-8.06,0-6.19-5.35-8.35-13.5-10.6-10.88-3.09-20.35-8.72-20.35-18.37,0-10,7-19.79,25.88-19.79,10,0,18.28,3.75,25.22,8.91l-7.5,8.06a31.27,31.27,0,0,0-18.57-6.09c-8.53,0-12.28,3.75-12.28,7.12,0,5.16,5.53,6.94,12.94,9.19,13.5,4.22,21,8.91,21,19.6,0,8.63-6.75,20.91-26.72,20.91C288.06,494.45,278.22,490.7,271.37,485.17Z"/><path class="cls-2" d="M404.8,427.78h12.48l-14,65.64H390.83l5.82-27.19H363.17l-5.81,27.19H344.89l14-65.64h12.47l-5.91,27.57H398.9Z"/><path class="cls-2" d="M433.32,465.94c0-20,15.28-39.19,39.28-39.19,19.22,0,31.13,11.06,31.13,28.41,0,20-15.28,39.29-39.19,39.29C445.32,494.45,433.32,482.92,433.32,465.94Zm57.47-9.09c0-12.1-7.22-19.13-19-19.13-16.13,0-25.6,13.5-25.6,26.72,0,11.44,7.31,18.95,19.22,18.95C481.32,483.39,490.79,470.16,490.79,456.85Z"/><path class="cls-2" d="M583.91,446.72c0,11.44-8.54,27.2-33.85,27.2H536.37l-4.13,19.5H519.87l14-65.64h25.31C574.44,427.78,583.91,435.66,583.91,446.72ZM551,463c15.19,0,20.34-8.07,20.34-13.88,0-6.37-5-10.5-13.69-10.5H543.87L538.71,463Z"/><path class="cls-3" d="M546.27,350.42a89.81,89.81,0,0,1-63.9,26.47h0a89.8,89.8,0,0,1-63.92-26.47L201.09,133.06a61,61,0,0,0-44.84-17.91l7.86-7.85a90.36,90.36,0,0,1,126-1.69h0l0,0L487.85,303.22c17.89,17.89,37.94,24.22,55.06,24.22a64,64,0,0,0,21.84-3.72,90.59,90.59,0,0,1-18.48,26.7ZM297.53,376.89a89.79,89.79,0,0,1-63.91-26.47L120,236.8c-23.47-23.47-47.6-24.61-64.37-21l68.54-68.55c22.93-14.56,46.52-14.21,61.74,1L373.36,335.69a90.37,90.37,0,0,1-75.83,41.2Zm-184.82,0a90.33,90.33,0,0,1-86-118.13c2-4.26,13.93-17.26,31.92-21.66C75.34,233,90.87,238,104.82,252l85.12,85.12-13.32,13.33a89.79,89.79,0,0,1-63.91,26.47ZM431,107.3l115.3,115.3A89.78,89.78,0,0,1,572.72,286h0c-.08,7.14-5.4,13.56-14.23,17.17-13.22,5.4-35.69,4.68-55.47-15.11L313.46,98.48A90.33,90.33,0,0,1,431,107.3ZM561.44,207.42,446.14,92.12a111.86,111.86,0,0,0-148.61-8.5,111.85,111.85,0,0,0-148.6,8.5L33.63,207.42a111.11,111.11,0,0,0-27,43.82c-.22.53-.42,1.07-.58,1.6l.06,0A111.82,111.82,0,0,0,191.8,365.59l13.32-13.32,13.32,13.32a111.86,111.86,0,0,0,158.18,0,112.67,112.67,0,0,0,12.2-14.45l14.45,14.44a111.07,111.07,0,0,0,79.09,32.76h0a111.84,111.84,0,0,0,79.08-190.93Z"/><path class="cls-4" d="M170.58,529.25v1.16h-10V510.64h1.19v18.61Z"/><path class="cls-4" d="M194.34,523a7.27,7.27,0,1,1-7.27-7.39A7.06,7.06,0,0,1,194.34,523Zm-13.38,0a6.11,6.11,0,1,0,6.11-6.28A6,6,0,0,0,181,523.06Z"/><path class="cls-4" d="M218.11,528.8c0,4.35-2.8,7.13-7.13,7.1a8.8,8.8,0,0,1-6-2.41l.62-.87A7.62,7.62,0,0,0,211,534.8a5.61,5.61,0,0,0,6-6V526a6.3,6.3,0,0,1-6,3.79,6.71,6.71,0,0,1-6.82-7.07c0-4.13,2.86-7.11,6.79-7.11a6.36,6.36,0,0,1,6.05,3.82v-3.79h1.14Zm-1.14-6a5.87,5.87,0,1,0-5.88,6A5.78,5.78,0,0,0,217,522.77Z"/><path class="cls-4" d="M232.25,511.43a1,1,0,1,1-1-1A1,1,0,0,1,232.25,511.43Zm-1.58,19V515.67h1.16v14.74Z"/><path class="cls-4" d="M252.51,516.8l-.51,1a7,7,0,0,0-3.74-1c-2.06,0-3.67.79-3.67,2.55,0,4,8.6,2,8.6,7.21,0,2.74-2.46,4-5.12,4a7.87,7.87,0,0,1-5.41-2l.54-.9a7.22,7.22,0,0,0,4.92,1.86c2.07,0,3.85-.82,3.93-2.68.12-4.16-8.59-2.27-8.59-7.33,0-2.57,2.23-3.71,4.83-3.71A8.09,8.09,0,0,1,252.51,516.8Z"/><path class="cls-4" d="M271.18,529.39a5.39,5.39,0,0,1-3.08,1.05c-2.1,0-3.34-1.33-3.34-4.1v-9.28h-2.15v-1h2.15v-3.65h1.13V516h5v1h-5v9.14c0,2.09.82,3.11,2.35,3.08a4.4,4.4,0,0,0,2.49-.85Z"/><path class="cls-4" d="M283.43,511.43a1,1,0,1,1-2,0,1,1,0,1,1,2,0Zm-1.58,19V515.67H283v14.74Z"/><path class="cls-4" d="M306.88,517.71l-.68.85a6.5,6.5,0,0,0-4.55-1.78,6.28,6.28,0,0,0,0,12.56,6.15,6.15,0,0,0,4.81-2.07l.7.77a7.12,7.12,0,0,1-5.54,2.4,7.4,7.4,0,0,1,0-14.8A7.33,7.33,0,0,1,306.88,517.71Z"/><path class="cls-4" d="M327.31,527.5a6.47,6.47,0,0,1-5.89,2.94c-2.91,0-4.86-1.84-4.86-4.33s2.09-4,5.49-4h5.23v-1.44c0-2.49-1.47-4-4.41-4a8,8,0,0,0-4.95,1.92l-.57-.9a9.26,9.26,0,0,1,5.69-2.1c3.48,0,5.37,1.93,5.4,5l.06,9.79h-1.16Zm0-1.9v-2.4h-5.15c-2.89,0-4.47,1-4.47,2.88s1.5,3.28,3.9,3.28C324.34,529.36,326.4,528.18,327.31,525.6Z"/><path class="cls-4" d="M365.72,527.5a6.44,6.44,0,0,1-5.88,2.94c-2.91,0-4.86-1.84-4.86-4.33s2.09-4,5.48-4h5.24v-1.44c0-2.49-1.47-4-4.42-4a8,8,0,0,0-4.95,1.92l-.56-.9a9.26,9.26,0,0,1,5.68-2.1c3.48,0,5.38,1.93,5.41,5l.05,9.79h-1.16Zm0-1.9v-2.4h-5.14c-2.89,0-4.47,1-4.47,2.88s1.5,3.28,3.9,3.28C362.75,529.36,364.82,528.18,365.72,525.6Z"/><path class="cls-4" d="M401.63,529.39a5.42,5.42,0,0,1-3.09,1.05c-2.09,0-3.33-1.33-3.33-4.1v-9.28h-2.15v-1h2.15v-3.65h1.13V516h5v1h-5v9.14c0,2.09.82,3.11,2.34,3.08a4.37,4.37,0,0,0,2.49-.85Z"/><path class="cls-4" d="M424.51,530.41h-1.16v-3.93a5.89,5.89,0,0,1-5.91,4c-3.56,0-5.63-2.15-5.63-5.77v-9H413v8.77c0,3,1.75,4.81,4.72,4.81,3.57-.08,5.66-2.52,5.66-6.36v-7.22h1.16Z"/><path class="cls-4" d="M462.25,527.5a6.45,6.45,0,0,1-5.88,2.94c-2.92,0-4.87-1.84-4.87-4.33s2.1-4,5.49-4h5.23v-1.44c0-2.49-1.47-4-4.41-4a8,8,0,0,0-4.95,1.92l-.57-.9a9.31,9.31,0,0,1,5.69-2.1c3.48,0,5.38,1.93,5.4,5l.06,9.79h-1.16Zm0-1.9v-2.4H457.1c-2.88,0-4.47,1-4.47,2.88s1.5,3.28,3.91,3.28C459.28,529.36,461.35,528.18,462.25,525.6Z"/><path class="cls-4" d="M476.06,530.41v-21h1.19v21Z"/><path class="cls-4" d="M501.24,517.71l-.68.85a6.52,6.52,0,0,0-4.56-1.78,6.28,6.28,0,0,0,0,12.56,6.15,6.15,0,0,0,4.81-2.07l.71.77a7.13,7.13,0,0,1-5.55,2.4,7.4,7.4,0,0,1,0-14.8A7.35,7.35,0,0,1,501.24,517.71Z"/><path class="cls-4" d="M521.66,527.5a6.45,6.45,0,0,1-5.88,2.94c-2.92,0-4.87-1.84-4.87-4.33s2.1-4,5.49-4h5.23v-1.44c0-2.49-1.47-4-4.41-4a8,8,0,0,0-5,1.92l-.57-.9a9.31,9.31,0,0,1,5.69-2.1c3.48,0,5.38,1.93,5.4,5l.06,9.79h-1.16Zm0-1.9v-2.4h-5.15c-2.88,0-4.47,1-4.47,2.88s1.5,3.28,3.91,3.28C518.69,529.36,520.76,528.18,521.66,525.6Z"/><path class="cls-4" d="M548.25,521.42v9h-1.18v-8.77a4.41,4.41,0,0,0-4.81-4.81c-3.4.09-5.49,2.21-5.74,5.6v8h-1.19V515.67h1.19v3.76c1-2.43,3.08-3.73,6-3.79C546.13,515.64,548.25,517.82,548.25,521.42Z"/><path class="cls-4" d="M571.62,517.71l-.68.85a6.48,6.48,0,0,0-4.55-1.78,6.28,6.28,0,0,0,0,12.56,6.15,6.15,0,0,0,4.81-2.07l.71.77a7.16,7.16,0,0,1-5.55,2.4,7.4,7.4,0,0,1,0-14.8A7.33,7.33,0,0,1,571.62,517.71Z"/><path class="cls-4" d="M595.27,523.37H582.4a5.92,5.92,0,0,0,6.08,6,6.65,6.65,0,0,0,5-2l.68.76a7.63,7.63,0,0,1-5.71,2.35,7.4,7.4,0,0,1,0-14.8C592.76,515.64,595.36,518.81,595.27,523.37Zm-1.07-1c-.23-3.34-2.41-5.6-5.77-5.6a5.82,5.82,0,0,0-6,5.6Z"/></svg>