<svg width="65" height="64" viewBox="0 0 65 64" fill="none" xmlns="http://www.w3.org/2000/svg">
<path d="M62.8609 46.9695L53.9107 38.0381C50.7143 34.8483 45.2802 36.1244 44.0016 40.271C43.0427 43.1419 39.8462 44.7368 36.9693 44.0987C30.5763 42.5038 21.9458 34.2104 20.3476 27.5118C19.3886 24.6409 21.3065 21.4511 24.1834 20.4943C28.3388 19.2184 29.6174 13.7958 26.4209 10.606L17.4707 1.67463C14.9135 -0.558211 11.0777 -0.558211 8.84018 1.67463L2.76684 7.73521C-3.30649 14.1148 3.40614 31.0206 18.4297 46.0126C33.4532 61.0045 50.3946 68.0222 56.7876 61.6425L62.8609 55.5819C65.0986 53.0301 65.0986 49.2023 62.8609 46.9695Z" fill="white"/>
</svg>
